<?xml version="1.0" standalone="no"?>
<!DOCTYPE svg PUBLIC "-//W3C//DTD SVG 20010904//EN"
 "http://www.w3.org/TR/2001/REC-SVG-20010904/DTD/svg10.dtd">
<svg version="1.0" xmlns="http://www.w3.org/2000/svg"
 width="300.000000pt" height="208.000000pt" viewBox="0 0 300.000000 208.000000"
 preserveAspectRatio="xMidYMid meet">
<metadata>
Created by potrace 1.10, written by Peter Selinger 2001-2011
</metadata>
<g transform="translate(0.000000,208.000000) scale(0.100000,-0.100000)"
fill="#000000" stroke="none">
<path d="M546 1582 c-3 -5 -15 -53 -27 -108 -31 -147 -82 -287 -136 -375 -67
-112 -132 -170 -103 -93 11 28 10 28 -6 12 -23 -22 -27 -94 -7 -131 18 -36 27
-30 13 8 -33 88 60 -13 122 -131 52 -100 98 -236 124 -367 12 -65 21 -87 31
-85 12 2 15 45 16 250 l2 246 50 6 c336 37 353 38 510 31 88 -5 197 -9 243 -9
78 -1 83 -2 77 -21 -12 -42 -17 -301 -6 -358 26 -138 83 -178 111 -78 5 20 13
86 16 146 6 110 33 223 57 244 7 5 71 12 142 14 72 2 162 9 200 17 56 10 88
10 155 1 61 -8 95 -8 120 -1 34 10 36 9 73 -31 35 -40 37 -45 37 -113 1 -142
42 -301 77 -294 37 7 25 209 -19 325 -29 78 -19 90 77 88 69 -1 79 -4 96 -26
14 -19 20 -21 30 -12 10 10 9 20 -4 48 -18 38 -55 54 -90 38 -13 -6 -46 -8
-74 -6 -44 5 -53 2 -64 -15 -12 -19 -13 -19 -48 15 -33 32 -40 34 -76 28 -49
-8 -55 -8 -180 0 -68 5 -114 3 -145 -5 -25 -7 -108 -16 -185 -19 l-139 -6 -23
-34 -23 -34 0 31 c0 40 -27 109 -45 116 -8 3 -22 -2 -30 -11 -17 -17 -27 -17
-387 3 -72 4 -154 2 -210 -5 -51 -6 -131 -16 -178 -22 -47 -5 -100 -12 -117
-15 -30 -4 -33 -2 -33 20 0 37 -21 76 -40 76 -52 0 -61 -114 -10 -127 19 -5
20 -14 20 -153 0 -81 3 -163 6 -181 12 -62 -6 -24 -26 57 -11 43 -32 108 -45
144 -31 82 -139 250 -165 257 -17 5 -16 7 11 30 68 57 171 263 200 398 6 33
17 65 22 70 7 7 8 4 3 -8 -3 -10 -6 -90 -6 -178 0 -134 -2 -159 -15 -159 -8 0
-22 -12 -31 -26 -14 -20 -15 -33 -8 -61 19 -73 68 -67 79 11 l7 42 91 -12
c302 -41 338 -43 497 -32 227 16 312 16 333 -2 29 -23 50 -1 69 71 9 35 17 58
17 51 1 -7 12 -24 26 -38 24 -24 27 -24 128 -18 79 5 115 3 157 -9 64 -18 179
-24 265 -14 34 5 74 3 94 -2 38 -12 79 4 104 40 l15 21 22 -22 c18 -18 29 -21
69 -15 26 3 59 2 74 -4 36 -14 61 -1 83 40 12 24 13 34 4 43 -8 8 -17 4 -35
-16 -21 -24 -27 -26 -56 -18 -19 6 -42 8 -51 5 -10 -3 -27 -7 -37 -10 -37 -11
-45 28 -22 98 38 118 56 307 30 322 -38 24 -79 -99 -86 -255 -4 -89 -9 -111
-29 -142 -13 -21 -28 -38 -32 -39 -4 0 -80 -2 -169 -5 -130 -4 -176 -1 -225
12 -45 11 -93 15 -168 12 l-105 -3 -17 35 c-25 51 -36 110 -46 245 -5 66 -15
133 -23 148 -19 43 -49 32 -79 -28 -24 -47 -25 -59 -25 -220 0 -93 3 -185 7
-203 l8 -33 -58 2 c-31 1 -135 -3 -231 -10 -177 -13 -178 -13 -439 20 -40 5
-93 9 -118 9 l-44 0 0 255 c0 231 -5 278 -24 247z m988 -102 c19 -156 19 -155
5 -142 -19 17 -46 15 -58 -5 -9 -15 -10 -13 -11 13 0 70 34 199 50 189 5 -3
11 -28 14 -55z m886 -109 c-7 -42 -16 -83 -21 -91 -7 -11 -8 -6 -5 15 3 17 10
64 17 105 7 41 14 69 17 61 2 -7 -1 -48 -8 -90z m-878 -176 c-1 -33 -8 -80
-15 -105 l-14 -45 -13 30 c-16 39 -17 181 0 220 l12 30 16 -35 c10 -22 15 -58
14 -95z m855 33 c-3 -7 -5 -2 -5 12 0 14 2 19 5 13 2 -7 2 -19 0 -25z m-1861
-190 c-3 -13 -6 -30 -6 -38 -1 -9 -5 -6 -10 8 -10 24 -4 52 12 52 6 0 8 -10 4
-22z m3 -191 c1 -10 -3 -15 -9 -12 -5 3 -10 21 -9 38 0 27 2 29 9 12 5 -11 9
-28 9 -38z m1002 -105 c10 -67 -1 -144 -22 -158 -28 -17 -42 160 -19 232 12
36 14 37 21 16 5 -13 14 -53 20 -90z m886 -292 c-3 -31 -24 81 -31 170 -5 54
-3 48 14 -40 11 -58 19 -116 17 -130z m-896 98 l22 14 -7 -64 c-12 -111 -18
-139 -30 -135 -15 5 -33 72 -41 154 l-8 68 21 -25 c19 -22 23 -24 43 -12z"/>
</g>
</svg>
